<svg width="18" height="20" viewBox="0 0 18 20" fill="none" xmlns="http://www.w3.org/2000/svg">
<path d="M18 18.3916C18 18.6568 17.8946 18.9112 17.7071 19.0987C17.5196 19.2863 17.2652 19.3916 17 19.3916H1C0.734784 19.3916 0.48043 19.2863 0.292893 19.0987C0.105357 18.9112 2.4071e-07 18.6568 2.4071e-07 18.3916V7.88163C-0.000105484 7.72924 0.0346172 7.57885 0.101516 7.44193C0.168415 7.30501 0.26572 7.18519 0.386 7.09163L8.386 0.869629C8.56154 0.733075 8.7776 0.658936 9 0.658936C9.2224 0.658936 9.43846 0.733075 9.614 0.869629L17.614 7.09163C17.7343 7.18519 17.8316 7.30501 17.8985 7.44193C17.9654 7.57885 18.0001 7.72924 18 7.88163V18.3916ZM16 17.3916V8.36963L9 2.92563L2 8.36963V17.3916H16Z" fill="black"/>
</svg>
